# xmcd
#
# Track frame offsets:
#	150
#	33068
#	55262
#	78156
#	105773
#	130557
#	163631
#	195451
#	217172
#	243273
#
# Disc length: 3547 seconds
#
# Revision: 1133596346
# Processed by: cddbd v1.5.2PL0 Copyright (c) Steve Scherf et al.
# Submitted via: EZCDAudioConverter 8.0.2.1
#
DISCID=710dd90a
DTITLE=Various Artist - Chiều Mưa Biên Giới
DYEAR=2009
DGENRE=Traditional Country
TTITLE0=Mai Thiên Vân - LK Chiều Mưa Biên Giới, Mấy Dặm Sơn Khê
TTITLE1=Quang Lê - Huế mù sương
TTITLE2=Mai Thiên Vân - Buồn không em
TTITLE3=Mạnh Quỳnh - LK Lại nhớ người yêu, Ước mộng đôi ta
TTITLE4=Duy Trường - Lk Thói đời, Trong tầm mắt đời
TTITLE5=Hoàng Oanh - Những đồi hoa sim
TTITLE6=Duy Trường - LK Người lính già xa quê hương, Những đóm mắt hỏa châu, X
TTITLE6=in anh giữ trọn tình quê
TTITLE7=Hà Phương - Thương chị
TTITLE8=Thái Châu - LK Lặng thầm, Phượng hồng
TTITLE9=Phi Nhung - Ướt lem chữ đời
EXTD=
EXTT0=
EXTT1=
EXTT2=
EXTT3=
EXTT4=
EXTT5=
EXTT6=
EXTT7=
EXTT8=
EXTT9=
PLAYORDER=
